# xmcd
#
# Track frame offsets:
#	151
#	14111
#	27956
#	41482
#	55566
#	69731
#	84028
#	97448
#	110423
#	125431
#	137818
#	149903
#	162123
#	176943
#	190201
#	203588
#	216068
#	227936
#	240566
#	251661
#
# Disc length: 3533 seconds
#
# Revision: 1
# Processed by: cddbd v1.5.1PL2 Copyright (c) Steve Scherf et al.
# Submitted via: EasyCDDAExtractor 9.0.0.1
#
DISCID=290dcb14
DTITLE=Various Artist - Vintage Country
DYEAR=1900
DGENRE=Country
TTITLE0=Jimmy Rodgers - My Old Pal
TTITLE1=Jimmy Rodgers - Blues Yodel No. 4 
TTITLE2=Jimmy Rodgers - Moonlight and Skies 
TTITLE3=Patsy Montana and The Prairie Ramblers - I Want To Be A Cowboy Sweethear
TTITLE3=t
TTITLE4=The Carter Family - Can The Circle Be Unbroken (Bye and Bye) 
TTITLE5=The Carter Family - Answer To Sleeping Willow 
TTITLE6=The Carter Family - Coal Miner's Blues 
TTITLE7=Bill Monroe and His Bluegrass Boys - I Wonder If You Feel The Way I Do
TTITLE8=Gene Autry - The Last Round-Up
TTITLE9=Gene Autry - Deep In The Heart Of Texas
TTITLE10=Gene Autry - (I've Got Spurs That) Jingle, Jangle, Jingle 
TTITLE11=Ted Daffan's Texans - Born To Lose 
TTITLE12=Red Foley - Old Sheep 
TTITLE13=Red Foley - Hang Your Head On Shame
TTITLE14=Red Foley - Smoke On The Water
TTITLE15=Elton Britt - There's A Star Spangled Banner Waving Somewhere
TTITLE16=Roy Acuff - Just To Ease My Troubled Mind 
TTITLE17=Roy Acuff - The Prodigal Son
TTITLE18=Roy Acuff - Not A Word From Home 
TTITLE19=Tex Ritter and His Texans - I'm Wasting My Tears 
EXTD=
EXTT0=
EXTT1=
EXTT2=
EXTT3=
EXTT4=
EXTT5=
EXTT6=
EXTT7=
EXTT8=
EXTT9=
EXTT10=
EXTT11=
EXTT12=
EXTT13=
EXTT14=
EXTT15=
EXTT16=
EXTT17=
EXTT18=
EXTT19=
PLAYORDER=
